<?xml version="1.0" ?><svg id="Layer_1" style="enable-background:new 0 0 128 128;" version="1.1" viewBox="0 0 128 128" xml:space="preserve" xmlns="http://www.w3.org/2000/svg" xmlns:xlink="http://www.w3.org/1999/xlink"><style type="text/css">
	.st0{fill-rule:evenodd;clip-rule:evenodd;}
	.st1{fill-rule:evenodd;clip-rule:evenodd;fill:#7ACED7;}
</style><path class="st0" d="M14.5,13.7h56.4V4c0-2.2,1.8-4,4-4h29.9c2.2,0,4,1.8,4,4v9.7h8.2c3.6,0,6.6,3,6.6,6.6v101.1  c0,3.6-3,6.6-6.6,6.6H14.5c-3.6,0-6.6-3-6.6-6.6V20.3C7.9,16.6,10.9,13.7,14.5,13.7L14.5,13.7z M50.1,35.7c0-3.3-2.7-6-6-6H29.9  c-3.3,0-6,2.7-6,6c0,3.3,2.7,6,6,6h14.2C47.4,41.7,50.1,39,50.1,35.7L50.1,35.7z M74.9,13.7h29.9V4H74.9V13.7L74.9,13.7z M65.8,54.9  c-12.9,0-23.4,10.5-23.4,23.4c0,12.9,10.5,23.4,23.4,23.4c12.9,0,23.4-10.5,23.4-23.4C89.2,65.4,78.7,54.9,65.8,54.9L65.8,54.9z   M50.1,35.7c0-3.3-2.7-6-6-6H29.9c-3.3,0-6,2.7-6,6c0,3.3,2.7,6,6,6h14.2C47.4,41.7,50.1,39,50.1,35.7z" id="XMLID_14_"/><path class="st1" d="M14.5,17.7h102.6c1.4,0,2.6,1.2,2.6,2.6v101.1c0,1.4-1.2,2.6-2.6,2.6H14.5  c-1.4,0-2.6-1.2-2.6-2.6V20.3C11.9,18.8,13.1,17.7,14.5,17.7L14.5,17.7z M50.1,35.7c0-3.3-2.7-6-6-6H29.9c-3.3,0-6,2.7-6,6  c0,3.3,2.7,6,6,6h14.2C47.4,41.7,50.1,39,50.1,35.7L50.1,35.7z M65.8,50.9c-15.1,0-27.4,12.3-27.4,27.4s12.3,27.4,27.4,27.4  c15.1,0,27.4-12.3,27.4-27.4S80.9,50.9,65.8,50.9z" id="XMLID_10_"/></svg>